<svg width="115" height="32" viewBox="0 0 115 32" fill="none" xmlns="http://www.w3.org/2000/svg">
<path d="M14.2348 22.7686C12.5907 23.8261 10.9748 24.8555 9.30204 25.9211C8.00339 23.8795 6.71569 21.8405 5.41306 19.811C3.82581 17.3382 2.23865 14.865 0.62689 12.4081C-0.351931 10.9161 -0.187939 11.2047 1.14298 10.3353C1.64459 10.0076 2.16507 9.70785 2.65679 9.36632C3.05313 9.09105 3.33336 9.27334 3.53359 9.58133C4.61316 11.242 5.67681 12.9131 6.73801 14.5856C7.9349 16.472 9.12276 18.3641 10.3161 20.2528C10.4841 20.5186 10.6321 20.6636 10.9809 20.405C11.6307 19.9234 12.3342 19.5141 13.046 19.055C12.0062 17.4546 10.9604 15.849 9.91944 14.2403C9.63024 13.7933 9.70255 13.5959 10.166 13.2948C11.826 12.2164 13.4761 11.123 15.134 10.0416C16.958 8.85184 18.7487 7.60461 20.6249 6.50347C22.1472 5.6101 23.8668 5.8115 25.1057 7.11079C25.7426 7.77876 26.1546 8.66411 26.6516 9.46159C27.0242 10.0595 27.3695 10.6744 27.73 11.2799C27.7559 11.3234 27.8017 11.3666 27.8481 11.3846C29.0215 11.8398 29.6543 12.8288 30.2757 13.8314C30.7222 14.5516 31.1899 15.2592 31.6222 15.9877C32.5471 17.5462 32.1493 19.5729 30.7119 20.571C29.2358 21.596 27.7129 22.5534 26.2104 23.5402C25.0766 24.2849 23.9497 25.0402 22.807 25.7708C21.6184 26.5308 20.4195 27.2755 19.2077 27.9977C19.1065 28.0581 18.7939 27.9505 18.7138 27.831C17.8399 26.5266 16.9901 25.2061 16.1398 23.886C15.85 23.436 15.5783 22.9744 15.2963 22.5193C15.1661 22.3092 15.0102 22.2608 14.7945 22.4198C14.6286 22.5421 14.4409 22.6348 14.2348 22.7686ZM18.8404 20.7206C19.2625 21.3529 19.6845 21.9852 20.1175 22.634C22.7363 20.9559 25.3005 19.3126 27.8831 17.6576C27.4921 17.018 27.0929 16.4022 26.7339 15.7638C26.5076 15.3615 26.335 15.3431 25.9376 15.6132C24.4077 16.6532 22.8417 17.6402 21.2859 18.6418C20.5024 19.1463 19.7086 19.635 18.9267 20.142C18.7451 20.2597 18.4415 20.3956 18.8404 20.7206ZM16.9889 13.6414C16.374 14.0537 15.759 14.4661 15.1179 14.896C15.5532 15.5606 15.9967 16.2377 16.4384 16.9123C17.0557 16.5177 17.6721 16.1237 18.2885 15.7296C19.9617 14.6601 21.6308 13.5839 23.3119 12.527C23.6248 12.3302 23.6304 12.1667 23.4332 11.8827C23.0627 11.3493 22.7255 10.7927 22.3533 10.2129C22.0776 10.3899 21.7894 10.5738 21.5023 10.7595C20.0236 11.7161 18.5453 12.6731 16.9889 13.6414Z" fill="black"/>
<path d="M7.42886 10.5441C6.94282 9.82062 6.50365 9.09983 6.04823 8.38946C5.5502 7.61262 5.59889 7.38655 6.33495 6.92991C7.7539 6.04961 9.16321 5.15377 10.5769 4.265C11.8813 3.44496 13.1916 2.63421 14.4888 1.80306C15.293 1.28785 16.0779 0.742603 16.8709 0.210071C17.3418 -0.106145 17.5654 -0.078818 17.8718 0.384017C18.4055 1.19027 18.9258 2.00548 19.4434 2.82224C19.5775 3.03376 19.5553 3.18859 19.2976 3.34537C18.2377 3.99038 17.1924 4.65987 16.1506 5.33413C15.2718 5.9029 14.4098 6.49749 13.5325 7.06864C11.7078 8.25669 9.87731 9.43596 8.05074 10.6212C7.83125 10.7637 7.64152 10.7508 7.42886 10.5441Z" fill="black"/>
<path d="M14.7116 26.807C15.281 27.6785 15.8183 28.5237 16.38 29.3524C16.5981 29.6742 16.4208 29.8857 16.2013 30.0246C15.3597 30.5576 14.4606 31.0071 13.6575 31.5905C13.2084 31.9166 12.9929 31.6634 12.8228 31.4075C12.2032 30.4751 11.6323 29.5103 11.0081 28.5012C12.1084 27.7946 13.1844 27.1036 14.2814 26.3991C14.4214 26.5279 14.5553 26.651 14.7116 26.807Z" fill="black"/>
<path d="M39.6771 11.3826H43.4701V18.0276H51.0634V21.1112H39.6771V11.3826ZM58.8377 14.2129L57.4985 17.0866H60.1696L58.8377 14.2129ZM51.3602 21.1257L56.5792 11.397H61.0889L66.3079 21.1257H62.0371L61.2699 19.4608H56.3983L55.631 21.1257H51.3602ZM66.6047 11.3826H70.3977V21.1112H66.6047V11.3826ZM76.2031 18.8094H81.3063C81.632 18.8094 81.8999 18.4836 81.8999 18.1579C81.8999 17.8322 81.632 17.5064 81.3063 17.5064H76.2031V18.8094ZM80.5969 13.7062H76.2031V15.0163H80.5969C80.9226 15.0163 81.1905 14.6834 81.1905 14.3576C81.1905 14.0319 80.9226 13.7062 80.5969 13.7062ZM83.6226 16.0949C84.7229 16.4496 85.4612 17.2893 85.4612 18.5126C85.483 20.2137 84.0497 21.1257 82.3776 21.1257H72.4101V11.397H81.661C83.3476 11.3898 84.7736 12.3091 84.7519 14.0029C84.7519 14.9367 84.3175 15.6533 83.6226 16.0949ZM92.8591 14.2129L91.5199 17.0866H94.191L92.8591 14.2129ZM85.3816 21.1257L90.6006 11.397H95.1103L100.329 21.1257H96.0585L95.2913 19.4608H90.4197L89.6524 21.1257H85.3816ZM110.116 17.7887H104.419V21.1112H100.626V11.3826H104.419V14.7051H110.116V11.3826H113.916V21.1112H110.116V17.7887Z" fill="black"/>
</svg>
